<svg width="38" height="44" viewBox="0 0 38 44" fill="none" xmlns="http://www.w3.org/2000/svg">
<path d="M21.3697 -0.000976562C12.3791 -0.000976562 5.0647 7.31345 5.0647 16.304V18.9778L0.52478 26.7914C0.467712 26.8897 0.4375 27.0015 0.4375 27.1153V29.8291C0.4375 30.1852 0.726196 30.4736 1.08203 30.4736H5.0647L5.06503 34.8121C5.06503 36.7376 6.63138 38.304 8.55692 38.304H9.86813C10.224 38.304 10.5123 38.0153 10.5123 37.6595C10.5123 37.3033 10.224 37.0149 9.8678 37.0149H8.55692C7.34204 37.0149 6.3541 36.0266 6.3541 34.8121V30.4736H8.20074C8.55658 30.4736 8.84528 30.1852 8.84528 29.8291V25.558C8.84528 25.2022 8.55658 24.9135 8.20074 24.9135H6.77707C6.4209 24.9135 6.13254 25.2022 6.13254 25.558C6.13254 25.9142 6.4209 26.2026 6.77707 26.2026H7.55621V29.1845H1.72656V27.6263H3.92938C4.28522 27.6263 4.57391 27.3376 4.57391 26.9817C4.57391 26.6255 4.28522 26.3372 3.92938 26.3372H2.27979L6.25809 19.4897C6.31885 19.391 6.35376 19.2752 6.35376 19.1517V16.304C6.35376 8.02444 13.0898 1.28809 21.3697 1.28809C29.6499 1.28809 36.3859 8.02444 36.3859 16.304V21.9987C36.3859 28.1919 32.6822 33.6533 26.9402 35.9467H25.2849C24.9287 35.9467 24.6403 36.2351 24.6403 36.5913C24.6403 36.9474 24.9287 37.2358 25.2849 37.2358H26.4202V42.71H14.54V38.304H16.0308C16.387 38.304 16.6753 38.0156 16.6753 37.6595C16.6753 37.3036 16.387 37.0149 16.0308 37.0149H13.8971H13.8954H12.4503C12.0945 37.0149 11.8058 37.3033 11.8058 37.6595C11.8058 38.0153 12.0945 38.304 12.4503 38.304H13.2509V43.3545C13.2509 43.7107 13.5396 43.999 13.8954 43.999H27.0647C27.4205 43.999 27.7092 43.7107 27.7092 43.3545V37.025C30.5559 35.8239 32.9883 33.8513 34.7642 31.2987C36.6682 28.5612 37.675 25.3456 37.675 21.9987V16.304C37.675 7.31345 30.3605 -0.000976562 21.3697 -0.000976562Z" fill="white"/>
</svg>
